<?xml version="1.0" standalone="no"?>
<!DOCTYPE svg PUBLIC "-//W3C//DTD SVG 20010904//EN"
 "http://www.w3.org/TR/2001/REC-SVG-20010904/DTD/svg10.dtd">
<svg version="1.0" xmlns="http://www.w3.org/2000/svg"
 width="589.000000pt" height="589.000000pt" viewBox="0 0 589.000000 589.000000"
 preserveAspectRatio="xMidYMid meet">
<metadata>
Created by potrace 1.14, written by Peter Selinger 2001-2017
</metadata>
<g transform="translate(0.000000,589.000000) scale(0.100000,-0.100000)"
fill="#000000" stroke="none">
<path d="M945 5090 c-88 -5 -290 -17 -450 -26 -205 -11 -297 -20 -317 -30 -15
-8 -28 -17 -28 -20 0 -2 13 2 30 11 18 9 56 15 102 15 40 0 219 9 398 20 179
10 406 22 505 25 170 6 182 5 212 -14 37 -23 72 -89 96 -176 14 -54 54 -283
132 -770 81 -506 82 -511 112 -571 9 -18 30 -40 46 -49 37 -22 15 -22 1507 30
239 8 572 19 740 25 168 5 357 12 420 15 63 3 311 12 550 20 779 26 781 26
787 42 6 15 -11 98 -144 698 -131 595 -136 608 -221 667 l-47 33 -290 7 c-159
3 -720 11 -1245 18 -525 6 -1187 15 -1470 20 -899 16 -1261 19 -1425 10z
m2493 -480 c-14 -22 -24 -19 -15 5 4 8 11 15 17 15 6 0 6 -7 -2 -20z m432 5
c20 -24 6 -28 -15 -5 -10 11 -13 20 -8 20 6 0 16 -7 23 -15z m980 -206 c-26
-5 -65 -5 -90 0 -39 8 -34 9 45 9 79 0 85 -1 45 -9z m-1086 -68 c28 -24 50
-81 37 -94 -8 -8 -11 -2 -11 21 0 40 -38 82 -75 82 -14 0 -25 4 -25 9 0 13 53
0 74 -18z m1076 3 c0 -17 -26 -19 -36 -3 -7 12 15 31 28 23 4 -3 8 -12 8 -20z
m-1081 -30 c12 -15 20 -36 20 -48 -1 -20 -2 -20 -6 -1 -6 26 -32 55 -58 66
-19 7 -19 8 2 8 12 1 31 -11 42 -25z m741 10 c0 -8 -5 -12 -10 -9 -6 4 -8 11
-5 16 9 14 15 11 15 -7z m680 6 c0 -5 -4 -10 -10 -10 -5 0 -10 5 -10 10 0 6 5
10 10 10 6 0 10 -4 10 -10z m-1540 -10 c0 -5 -4 -10 -10 -10 -13 0 -11 -43 3
-100 10 -37 16 -44 35 -43 12 0 31 1 42 2 11 1 20 8 20 17 0 9 -5 12 -11 8 -7
-4 -10 -1 -7 7 7 22 42 17 45 -6 l3 -20 -10 20 c-10 20 -10 20 -7 0 3 -26 34
-32 41 -8 3 11 4 9 3 -7 -2 -24 -5 -25 -71 -28 -38 -2 -74 2 -79 7 -6 6 -13
29 -18 53 -4 24 -10 60 -14 81 -7 33 -6 37 14 37 11 0 21 -4 21 -10z m110 -31
c16 -29 9 -29 -17 -2 -16 16 -18 23 -8 23 8 0 19 -9 25 -21z m795 -7 c-3 -3
-11 0 -18 7 -9 10 -8 11 6 5 10 -3 15 -9 12 -12z m635 -19 c0 -43 -5 -41 -13
5 -4 18 -2 32 3 32 6 0 10 -16 10 -37z m-1448 12 c0 -5 -5 -11 -11 -13 -6 -2
-11 4 -11 13 0 9 5 15 11 13 6 -2 11 -8 11 -13z m1115 9 c-3 -3 -12 -4 -19 -1
-8 3 -5 6 6 6 11 1 17 -2 13 -5z m-367 -57 c0 -18 -2 -19 -10 -7 -13 20 -13
43 0 35 6 -3 10 -16 10 -28z m435 18 c0 -11 -119 -20 -142 -11 -8 3 -11 11 -8
16 8 14 150 9 150 -5z m-1244 -37 c0 -10 2 -10 6 0 7 18 19 15 20 -7 1 -13 -5
-18 -20 -17 -24 1 -39 15 -31 28 8 12 24 9 25 -4z m1207 -21 c3 -28 -9 -34
-42 -21 -19 7 -21 25 -4 42 20 20 43 9 46 -21z m21 -53 c8 -7 -4 -12 -34 -16
-22 -2 -31 2 -33 14 -3 15 2 17 30 11 18 -3 35 -7 37 -9z m41 -54 c19 -6 10
-8 -36 -9 -34 -1 -77 -4 -95 -7 -24 -5 -31 -3 -24 4 19 19 110 27 155 12z
m-933 -205 c-4 -8 -11 -15 -17 -15 -6 0 -6 7 2 20 14 22 24 19 15 -5z m-422
-23 c-6 -7 -35 18 -35 31 0 5 9 2 20 -8 11 -10 18 -20 15 -23z"/>
<path d="M5710 3354 c-14 -2 -146 -8 -295 -14 -148 -6 -416 -17 -595 -25 -179
-8 -527 -24 -775 -35 -247 -11 -547 -25 -665 -30 -118 -6 -422 -19 -675 -30
-767 -33 -866 -39 -900 -59 -77 -44 -85 -100 -86 -661 -2 -764 -15 -1400 -29
-1445 -7 -22 -29 -55 -48 -74 l-37 -34 65 8 c36 5 112 10 170 11 109 2 217 12
430 38 69 8 206 24 305 36 99 11 236 27 305 35 69 8 150 17 180 20 30 3 105
12 165 19 61 8 139 17 175 21 36 3 117 12 180 20 63 7 198 23 300 35 102 12
257 30 345 40 237 28 487 57 690 80 430 48 711 96 755 128 14 10 34 35 44 56
24 50 31 200 46 1001 5 336 13 630 16 655 3 25 15 73 27 108 31 89 11 110 -93
96z m-1581 -241 c9 -17 5 -414 -5 -480 -3 -18 -13 -37 -23 -43 -10 -5 -126
-16 -257 -25 -132 -8 -302 -20 -378 -26 -186 -15 -176 -26 -176 206 0 222 7
286 34 318 20 25 26 26 181 32 143 6 158 5 140 -8 -18 -13 -117 -25 -227 -27
-16 0 -28 -3 -28 -8 0 -4 48 -4 108 1 59 5 135 6 168 4 72 -5 107 8 51 18 -21
4 -40 11 -42 15 -7 12 55 20 235 29 85 4 167 9 182 10 16 0 31 -6 37 -16z
m-54 -1603 c-16 -4 -43 -8 -60 -8 -29 1 -29 1 5 8 19 4 46 7 60 8 22 0 22 -1
-5 -8z m-340 -10 c-11 -5 -27 -9 -35 -9 -9 0 -8 4 5 9 11 5 27 9 35 9 9 0 8
-4 -5 -9z m-317 -37 c-10 -2 -28 -2 -40 0 -13 2 -5 4 17 4 22 1 32 -1 23 -4z"/>
<path d="M560 1371 c0 -30 24 -43 67 -36 68 11 70 16 18 35 -66 24 -85 24 -85
1z"/>
</g>
</svg>
