<svg xmlns="http://www.w3.org/2000/svg" xmlns:xlink="http://www.w3.org/1999/xlink" width="19" height="19" viewBox="0 0 19 19">
  <defs>
    <clipPath id="clip-path">
      <rect id="사각형_2375" data-name="사각형 2375" width="19" height="19" transform="translate(0)" fill="#5e6074"/>
    </clipPath>
  </defs>
  <g id="그룹_486" data-name="그룹 486" transform="translate(0 0)">
    <g id="그룹_484" data-name="그룹 484" transform="translate(0 0)" clip-path="url(#clip-path)">
      <path id="패스_292" data-name="패스 292" d="M16.182,7.2,13.905,5.206,13.893,5.2V1.817a.4.4,0,0,0-.4-.4H11.67a.4.4,0,0,0-.4.4v.869L8.441.1,8.423.09A.358.358,0,0,0,8.389.065L8.356.046,8.321.029,8.283.016,8.247.007,8.207,0,8.171,0l-.04,0L8.1.007l-.04.01L8.021.029,7.983.047,7.952.065a.38.38,0,0,0-.035.026L7.9.1.129,7.236a.4.4,0,0,0,.542.59l1.749-1.6v6.413a.4.4,0,0,0,.4.4H13.493a.4.4,0,0,0,.4-.4V6.26l1.75,1.531a.4.4,0,1,0,.539-.592M9.634,12.234H6.567V8.949a1.534,1.534,0,0,1,3.067,0Zm3.458,0H10.435V8.949a2.334,2.334,0,0,0-4.669,0v3.285H3.22V5.486L8.172.942,11.4,3.889c.007.007.016.012.023.018s.02.016.03.023.024.014.037.02l.03.015a.377.377,0,0,0,.045.014l.028.008a.393.393,0,0,0,.076.008h0a.4.4,0,0,0,.157-.032l.019-.011a.391.391,0,0,0,.051-.029c.008-.005.015-.012.022-.018a.412.412,0,0,0,.04-.035l.007-.006c.006-.007.01-.015.016-.022a.282.282,0,0,0,.044-.068.292.292,0,0,0,.029-.074.341.341,0,0,0,.009-.036.4.4,0,0,0,0-.044c0-.009,0-.017,0-.026V2.217h1.022Z" transform="translate(1.208 2.849)" fill="#5e6074"/>
    </g>
  </g>
</svg>
