<svg id="그룹_621" data-name="그룹 621" xmlns="http://www.w3.org/2000/svg" xmlns:xlink="http://www.w3.org/1999/xlink" width="30" height="30" viewBox="0 0 30 30">
  <defs>
    <clipPath id="clip-path">
      <rect id="사각형_2477" data-name="사각형 2477" width="30" height="30" fill="none"/>
    </clipPath>
  </defs>
  <rect id="사각형_2476" data-name="사각형 2476" width="30" height="30" fill="none"/>
  <g id="그룹_620" data-name="그룹 620">
    <g id="그룹_619" data-name="그룹 619" clip-path="url(#clip-path)">
      <path id="패스_321" data-name="패스 321" d="M8.849,14.945a.813.813,0,0,1,.208-.544L13.819,9.08a.816.816,0,1,1,1.216,1.088l-4.276,4.777,4.375,4.888a.815.815,0,1,1-1.215,1.088L9.057,15.489a.813.813,0,0,1-.208-.544" fill="#9da1b2"/>
      <path id="패스_322" data-name="패스 322" d="M14.658,14.945a.813.813,0,0,1,.208-.544L19.628,9.08a.816.816,0,1,1,1.216,1.088l-4.276,4.777,4.375,4.888a.815.815,0,1,1-1.215,1.088l-4.862-5.432a.813.813,0,0,1-.208-.544" fill="#9da1b2"/>
    </g>
  </g>
</svg>
